<?xml version="1.0" encoding="UTF-8" standalone="no"?>
<!-- Generator: Adobe Illustrator 19.0.0, SVG Export Plug-In . SVG Version: 6.00 Build 0)  -->

<svg
   version="1.1"
   id="Layer_1"
   x="0px"
   y="0px"
   viewBox="0 0 485.6 485.6"
   style="enable-background:new 0 0 485.6 485.6;"
   xml:space="preserve"
   sodipodi:docname="search.svg"
   inkscape:version="1.2.1 (9c6d41e410, 2022-07-14)"
   xmlns:inkscape="http://www.inkscape.org/namespaces/inkscape"
   xmlns:sodipodi="http://sodipodi.sourceforge.net/DTD/sodipodi-0.dtd"
   xmlns="http://www.w3.org/2000/svg"
   xmlns:svg="http://www.w3.org/2000/svg"><defs
   id="defs12315" /><sodipodi:namedview
   id="namedview12313"
   pagecolor="#ffffff"
   bordercolor="#000000"
   borderopacity="0.25"
   inkscape:showpageshadow="2"
   inkscape:pageopacity="0.0"
   inkscape:pagecheckerboard="0"
   inkscape:deskcolor="#d1d1d1"
   showgrid="false"
   inkscape:zoom="0.80225395"
   inkscape:cx="-298.5339"
   inkscape:cy="473.66547"
   inkscape:window-width="1920"
   inkscape:window-height="1022"
   inkscape:window-x="0"
   inkscape:window-y="0"
   inkscape:window-maximized="1"
   inkscape:current-layer="g12278" />
<g
   id="g12280">
	<g
   id="g12278">
		<path
   style="fill:#3b403b;fill-opacity:1"
   d="m 447.5,477.85 30.3,-30.3 c 4,-4 4,-10.4 0,-14.4 l -149.2,-149.2 -44.7,44.7 149.2,149.2 c 4,4 10.4,4 14.4,0 z"
   id="path12272"
   sodipodi:nodetypes="sssccss" />
		<path
   style="fill:#3b403b;fill-opacity:1"
   d="M163.4,67.05c-53.2,0-96.5,43.3-96.5,96.5c0,5,4.1,9.1,9.1,9.1s9.1-4.1,9.1-9.1    c0-43.2,35.1-78.3,78.3-78.3c5,0,9.1-4.1,9.1-9.1C172.5,71.05,168.4,67.05,163.4,67.05z"
   id="path12274" />
		<path
   style="fill:#2f2f2f;fill-opacity:1"
   d="m 335,277.55 c -3.5,-3.5 -9.3,-3.5 -12.8,0 l -15.9,15.9 -21.1,-21.1 c 25.9,-28.9 41.7,-67.1 41.7,-108.9 C 326.9,73.35 253.6,0.05 163.5,0.05 73.4,0.05 0,73.35 0,163.45 c 0,90.1 73.3,163.4 163.4,163.4 41.8,0 79.9,-15.8 108.9,-41.7 l 21.1,21.1 -15.9,15.9 c -1.7,1.7 -2.7,4 -2.7,6.4 0,2.4 1,4.7 2.7,6.4 l 141.9,141.9 c 5.6,5.6 13,8.7 20.9,8.7 7.9,0 15.3,-3.1 20.9,-8.7 l 15.7,-15.7 c 5.6,-5.6 8.7,-13 8.7,-20.9 0,-7.9 -3.1,-15.3 -8.7,-20.9 z M 18.2,163.45 c 0,-80.1 65.2,-145.3 145.3,-145.3 80.1,0 145.3,65.2 145.3,145.3 0,64.50629 -42.28503,119.34928 -100.58409,138.25797 -14.09319,4.57098 -29.1222,7.04203 -44.71591,7.04203 -80.1,0 -145.3,-65.2 -145.3,-145.3 z m 445.9,285 -15.7,15.7 c -2.2,2.2 -5,3.4 -8.1,3.4 -3.1,0 -5.9,-1.2 -8.1,-3.4 l -135.5,-135.5 31.9,-31.9 135.5,135.5 c 2.2,2.2 3.4,5 3.4,8.1 0,3.1 -1.3,6 -3.4,8.1 z"
   id="path12276"
   sodipodi:nodetypes="csccssssccssssssssccssssssssssccsss" />
	</g>
</g>
<g
   id="g12282">
</g>
<g
   id="g12284">
</g>
<g
   id="g12286">
</g>
<g
   id="g12288">
</g>
<g
   id="g12290">
</g>
<g
   id="g12292">
</g>
<g
   id="g12294">
</g>
<g
   id="g12296">
</g>
<g
   id="g12298">
</g>
<g
   id="g12300">
</g>
<g
   id="g12302">
</g>
<g
   id="g12304">
</g>
<g
   id="g12306">
</g>
<g
   id="g12308">
</g>
<g
   id="g12310">
</g>
</svg>
